<svg width="192" height="34" viewBox="0 0 192 34" xmlns="http://www.w3.org/2000/svg" xmlns:sketch="http://www.bohemiancoding.com/sketch/ns"><title>colophon</title><desc>Created with Sketch.</desc><g sketch:type="MSLayerGroup" fill="rgba(255,255,255,.75)"><path d="M3.438 16.454c-1.152 0-2.538-.054-2.538-.054v.522l.594.09c.738.108 1.044.342 1.044 1.17v8.442c0 1.044-.396 1.62-1.17 1.764l-.468.09v.522s1.206-.054 2.466-.054c1.404 0 1.728.054 2.754.054 4.734 0 7.182-2.952 7.182-6.588 0-3.33-2.088-6.012-6.876-6.012l-2.988.054zm.828.684c.198-.054.828-.126 1.368-.126 3.654 0 5.778 2.7 5.778 5.94 0 4.626-2.7 5.436-5.76 5.436-.81 0-1.386-.396-1.386-1.17v-10.08zm14.922 7.704c-2.088 0-4.59.594-4.59 2.61 0 1.188.774 1.836 2.07 1.836 1.44 0 1.962-.9 2.7-1.062.144.522.594 1.062 1.44 1.062 1.044 0 1.584-.864 1.584-.864l-.162-.306s-.288.18-.738.18c-.738 0-.846-.576-.846-1.476 0-1.206.09-2.322.09-3.456 0-1.674-.702-2.754-2.556-2.754-1.656 0-3.186.81-3.186 1.782 0 .522.378.828.954.828.324 0 .63-.09.864-.27-.126-.144-.234-.378-.234-.666 0-.45.342-.918 1.206-.918 1.134 0 1.458.72 1.458 1.674 0 .594-.054 1.8-.054 1.8zm-3.006 2.412c0-1.242 1.368-1.836 2.988-1.836 0 0-.018.594-.018 1.242 0 .666.09 1.17.09 1.17-.738.18-1.062.558-1.926.558-.612 0-1.134-.342-1.134-1.134zm15.714 1.188c-.576-.072-.72-.216-.72-1.062v-4.392c0-1.332-.756-2.376-2.358-2.376-1.404 0-2.484 1.206-2.916 1.332v-1.314s-1.332.666-3.006.828l.108.396c1.044 0 1.35.306 1.35 1.08v4.302c0 .684-.414 1.134-.954 1.206l-.504.072v.486s1.422-.054 2.232-.054c.81 0 2.052.054 2.052.054v-.486l-.576-.072c-.576-.054-.702-.216-.702-1.062v-4.932c.684-.126 1.368-.738 2.322-.738.936 0 1.422.504 1.422 1.476v4.05c0 .684-.414 1.098-.954 1.206l-.378.072v.486s1.278-.054 2.16-.054c.792 0 1.98.054 1.98.054v-.486l-.558-.072zm5.148 0c-.558-.072-.702-.216-.702-1.062v-6.75s-1.332.666-2.988.828l.09.396c1.044 0 1.35.306 1.35 1.08v4.302c0 .684-.414 1.134-.954 1.206l-.486.072v.486s1.404-.054 2.232-.054c.792 0 2.034.054 2.034.054v-.486l-.576-.072zm-2.52-11.232c0 .576.468 1.044 1.044 1.044.594 0 1.062-.468 1.062-1.044 0-.594-.468-1.062-1.062-1.062-.576 0-1.044.468-1.044 1.062zm11.304 6.354c0-1.872-.936-2.952-2.826-2.952-2.682 0-4.356 2.232-4.356 4.536 0 2.304 1.278 4.14 3.834 4.14 1.386 0 2.43-.54 3.168-1.368l-.144-.342c-.54.288-1.206.54-2.268.54-1.872 0-3.006-1.26-3.006-3.51 0-.504.036-.792.036-.792h5.274l.288-.252zm-5.49-.252c.252-1.242 1.206-2.07 2.286-2.07.99 0 1.638.468 1.638 1.584l-.018.27-3.906.216zm10.422 5.202l-.576-.072c-.558-.072-.702-.216-.702-1.062v-11.88s-1.332.666-2.988.828l.09.396c1.044 0 1.35.306 1.35 1.098v9.414c0 .684-.414 1.134-.954 1.206l-.486.072v.486s1.404-.054 2.232-.054c.792 0 2.034.054 2.034.054v-.486zm8.028-.036v.522s1.296-.054 2.556-.054c1.404 0 2.628.054 2.628.054v-.522l-.576-.09c-.72-.108-1.152-.342-1.152-1.17v-10.08h1.98c1.08 0 1.89.432 1.89 1.674l.45.09.198-2.79h-.396s-.18.288-.72.288h-8.298c-.576 0-.72-.288-.72-.288h-.432l-.198 2.7.45.09c.378-1.242 1.224-1.764 2.88-1.764h1.188v9.486c0 1.044-.45 1.602-1.278 1.764l-.45.09zm7.776-.27c0 .594.486 1.08 1.08 1.08.594 0 1.08-.486 1.08-1.08 0-.594-.486-1.08-1.08-1.08-.594 0-1.08.486-1.08 1.08zm16.596-11.808s-2.682.054-5.652.054c-.846 0-2.538-.054-2.538-.054v.522l.594.09c.738.108 1.044.342 1.044 1.17v8.442c0 1.044-.396 1.62-1.17 1.764l-.468.09v.522s1.17-.054 2.466-.054c1.71 0 5.778.054 5.778.054l.558-3.33-.432-.054c-.504 1.332-1.35 2.772-3.618 2.772-.81 0-1.386-.396-1.386-1.17v-4.32h1.44c.99 0 1.404.414 1.512 1.08l.072.414h.45s-.054-.99-.054-1.998c0-.954.054-2.286.054-2.286h-.45l-.126.72c-.144.81-.504 1.368-1.62 1.368h-1.278v-5.058c.198-.054.63-.126 1.116-.126 2.07 0 3.042 1.026 3.276 2.34h.432v-2.952zm7.92 4.302s-.432-.09-1.116-.09c-3.42 0-5.004 2.268-5.004 4.662 0 2.376 1.242 4.014 3.384 4.014 1.386 0 1.998-.9 2.736-1.116l.126 1.116s1.368-.702 2.88-.828l-.108-.396c-1.044 0-1.35-.288-1.35-1.08v-11.484s-1.332.666-2.988.828l.09.396c1.044 0 1.35.306 1.35 1.098v2.88zm-1.872 7.578c-1.908 0-2.646-1.764-2.646-3.492 0-2.25 1.386-3.51 2.952-3.51 1.17 0 1.566.63 1.566 1.386v5.004c-.468.09-1.152.612-1.872.612zm12.888-4.716c0-1.872-.936-2.952-2.826-2.952-2.682 0-4.356 2.232-4.356 4.536 0 2.304 1.278 4.14 3.834 4.14 1.386 0 2.43-.54 3.168-1.368l-.144-.342c-.54.288-1.206.54-2.268.54-1.872 0-3.006-1.26-3.006-3.51 0-.504.036-.792.036-.792h5.274l.288-.252zm-5.49-.252c.252-1.242 1.206-2.07 2.286-2.07.99 0 1.638.468 1.638 1.584l-.018.27-3.906.216zm15.498 5.13c-.576-.072-.72-.216-.72-1.062v-4.392c0-1.332-.756-2.376-2.358-2.376-1.404 0-2.484 1.206-2.916 1.332v-1.314s-1.332.666-3.006.828l.108.396c1.044 0 1.35.306 1.35 1.08v4.302c0 .684-.414 1.134-.954 1.206l-.504.072v.486s1.422-.054 2.232-.054c.81 0 2.052.054 2.052.054v-.486l-.576-.072c-.576-.054-.702-.216-.702-1.062v-4.932c.684-.126 1.368-.738 2.322-.738.936 0 1.422.504 1.422 1.476v4.05c0 .684-.414 1.098-.954 1.206l-.378.072v.486s1.278-.054 2.16-.054c.792 0 1.98.054 1.98.054v-.486l-.558-.072zm2.934-1.314c-.63 0-1.044.486-1.044 1.116.558.234.9.648.9 1.386 0 .828-.576 1.62-1.494 1.962l.108.27c1.368-.288 2.7-1.44 2.7-3.222 0-.954-.486-1.512-1.17-1.512zm9.918-10.674c-1.152 0-2.538-.054-2.538-.054v.522l.594.09c.738.108 1.044.342 1.044 1.17v8.442c0 1.044-.396 1.62-1.17 1.764l-.468.09v.522s1.206-.054 2.466-.054c1.404 0 1.728.054 2.754.054 4.734 0 7.182-2.952 7.182-6.588 0-3.33-2.088-6.012-6.876-6.012l-2.988.054zm.828.684c.198-.054.828-.126 1.368-.126 3.654 0 5.778 2.7 5.778 5.94 0 4.626-2.7 5.436-5.76 5.436-.81 0-1.386-.396-1.386-1.17v-10.08zm17.496 6.426c0-1.872-.936-2.952-2.826-2.952-2.682 0-4.356 2.232-4.356 4.536 0 2.304 1.278 4.14 3.834 4.14 1.386 0 2.43-.54 3.168-1.368l-.144-.342c-.54.288-1.206.54-2.268.54-1.872 0-3.006-1.26-3.006-3.51 0-.504.036-.792.036-.792h5.274l.288-.252zm-5.49-.252c.252-1.242 1.206-2.07 2.286-2.07.99 0 1.638.468 1.638 1.584l-.018.27-3.906.216zm11.862-2.34c-.648 0-1.332-.36-2.214-.36-1.8 0-2.844 1.098-2.844 2.358 0 2.754 4.05 2.412 4.05 4.356 0 .756-.684 1.224-1.602 1.224-1.098 0-1.908-.738-2.124-2.052h-.468c.09 2.268.09 2.412.09 2.412.81 0 1.242.378 2.394.378 1.71 0 3.006-.846 3.006-2.43 0-2.718-4.14-2.502-4.14-4.374 0-.612.468-1.26 1.422-1.26 1.278 0 1.8 1.026 1.8 1.926h.522l.108-2.178zm5.22 7.47c-.558-.072-.702-.216-.702-1.062v-6.75s-1.332.666-2.988.828l.09.396c1.044 0 1.35.306 1.35 1.08v4.302c0 .684-.414 1.134-.954 1.206l-.486.072v.486s1.404-.054 2.232-.054c.792 0 2.034.054 2.034.054v-.486l-.576-.072zm-2.52-11.232c0 .576.468 1.044 1.044 1.044.594 0 1.062-.468 1.062-1.044 0-.594-.468-1.062-1.062-1.062-.576 0-1.044.468-1.044 1.062zm8.28 15.678c-1.44 0-2.574-.342-2.574-1.44 0-.414.198-.756.558-1.008-.162-.234-.468-.396-.828-.396-.594 0-1.296.396-1.296 1.368 0 1.512 1.728 2.178 3.366 2.178 2.808 0 5.022-1.17 5.022-3.024 0-1.764-1.458-2.304-3.996-2.304-1.512 0-2.196-.126-2.196-.666 0-.594.918-.81 1.782-.99 2.232-.162 3.186-1.782 3.186-3.15 0-.684-.234-1.296-.648-1.8.396.126.702.504 1.314.504.666 0 .954-.396.954-.756 0-.198-.09-.414-.252-.54-.414.234-1.008.36-1.638.36-.324 0-.666-.054-.99-.108-.666-.378-1.17-.504-1.926-.504-2.268 0-3.6 1.566-3.6 3.132 0 1.512.936 2.448 2.214 2.79-.72.126-1.782.558-1.782 1.638 0 1.332 1.422 1.53 3.33 1.53 1.854 0 2.988.252 2.988 1.422 0 1.296-1.746 1.764-2.988 1.764zm-.522-11.664c1.314 0 2.034 1.26 2.034 2.484 0 1.53-.72 2.304-1.764 2.304-1.026 0-1.998-.828-1.998-2.502 0-1.332.504-2.286 1.728-2.286zm14.814 7.218c-.576-.072-.72-.216-.72-1.062v-4.392c0-1.332-.756-2.376-2.358-2.376-1.404 0-2.484 1.206-2.916 1.332v-1.314s-1.332.666-3.006.828l.108.396c1.044 0 1.35.306 1.35 1.08v4.302c0 .684-.414 1.134-.954 1.206l-.504.072v.486s1.422-.054 2.232-.054c.81 0 2.052.054 2.052.054v-.486l-.576-.072c-.576-.054-.702-.216-.702-1.062v-4.932c.684-.126 1.368-.738 2.322-.738.936 0 1.422.504 1.422 1.476v4.05c0 .684-.414 1.098-.954 1.206l-.378.072v.486s1.278-.054 2.16-.054c.792 0 1.98.054 1.98.054v-.486l-.558-.072zm8.568-4.878c0-1.872-.936-2.952-2.826-2.952-2.682 0-4.356 2.232-4.356 4.536 0 2.304 1.278 4.14 3.834 4.14 1.386 0 2.43-.54 3.168-1.368l-.144-.342c-.54.288-1.206.54-2.268.54-1.872 0-3.006-1.26-3.006-3.51 0-.504.036-.792.036-.792h5.274l.288-.252zm-5.49-.252c.252-1.242 1.206-2.07 2.286-2.07.99 0 1.638.468 1.638 1.584l-.018.27-3.906.216zm10.206 5.13c-.576-.054-.702-.216-.702-1.062v-4.806c.378-.108.972-.81 1.566-.81.468 0 .648.252.648.54 0 .198-.054.36-.054.36.18.054.342.09.522.09.576 0 .99-.396.99-1.008 0-.702-.486-1.134-1.278-1.134-1.152 0-2.07 1.386-2.394 1.458v-1.44s-1.332.666-3.006.828l.108.396c1.044 0 1.35.306 1.35 1.08v4.302c0 .684-.414 1.134-.954 1.206l-.504.072v.486s.936-.054 2.232-.054c1.404 0 2.322.054 2.322.054v-.486l-.846-.072z" sketch:type="MSShapeGroup"/><path d="M.838.497h4.001v.956h-2.927v2.095h2.927v.956h-2.927v3.497h-1.074v-7.503zm6.362 7.503v-7.503h1.88c.759 0 1.362.188 1.807.564.446.376.669.884.669 1.525 0 .437-.109.815-.328 1.133-.218.319-.532.557-.94.714.24.158.474.372.704.645.229.272.551.747.967 1.423.261.426.471.747.628.961l.397.537h-1.278l-.328-.494-.064-.091-.209-.295-.333-.548-.36-.585c-.222-.308-.425-.553-.61-.736-.184-.183-.351-.314-.5-.395-.149-.081-.398-.121-.749-.121h-.279v3.266h-1.074zm1.396-6.59h-.322v2.369h.408c.544 0 .918-.047 1.12-.14.202-.093.36-.234.473-.422.113-.188.169-.402.169-.642 0-.236-.063-.45-.188-.642s-.302-.327-.529-.406c-.227-.079-.604-.118-1.131-.118zm9.418-1.021c1.16 0 2.126.367 2.898 1.101.772.734 1.157 1.654 1.157 2.761 0 1.106-.389 2.022-1.168 2.747-.779.725-1.761 1.088-2.946 1.088-1.132 0-2.074-.363-2.828-1.088-.754-.725-1.131-1.634-1.131-2.726 0-1.121.38-2.048 1.139-2.782s1.719-1.101 2.879-1.101zm.043 1.021c-.859 0-1.566.269-2.119.806-.553.537-.83 1.223-.83 2.057 0 .809.278 1.482.833 2.02.555.537 1.25.806 2.084.806.838 0 1.537-.274 2.097-.822.56-.548.841-1.23.841-2.046 0-.795-.28-1.464-.841-2.006-.56-.542-1.249-.814-2.065-.814zm12.479-.913h.999v7.503h-1.08v-5.838l-2.31 2.9h-.199l-2.331-2.9v5.838h-1.074v-7.503h1.01l2.498 3.083 2.487-3.083zm6.015-.011h6.268v.956h-2.616v6.558h-1.08v-6.558h-2.573v-.956zm13.752.011h1.074v7.503h-1.074v-3.266h-4.216v3.266h-1.074v-7.503h1.074v3.244h4.216v-3.244zm3.907 0h4.254v.956h-3.18v2.288h3.072v.961h-3.072v2.331h3.282v.956h-4.356v-7.493zm10.924 7.493v-7.493h2.53c1.021 0 1.828.153 2.422.459.594.306 1.067.756 1.418 1.351.351.594.526 1.243.526 1.944 0 .501-.097.981-.29 1.439-.193.458-.469.861-.827 1.208-.365.358-.79.628-1.273.811-.283.111-.542.185-.779.223-.236.038-.687.056-1.354.056h-2.374zm2.417-6.537h-1.343v5.581h1.375c.537 0 .954-.037 1.251-.11.297-.073.545-.167.744-.279.199-.113.38-.252.545-.416.53-.537.795-1.216.795-2.036 0-.806-.272-1.463-.816-1.971-.201-.19-.431-.346-.69-.467-.26-.122-.506-.202-.739-.242-.233-.039-.607-.059-1.123-.059zm7.001-.956h4.254v.956h-3.18v2.288h3.072v.961h-3.072v2.331h3.282v.956h-4.356v-7.493zm8.537 4.356l-.816-.494c-.512-.312-.876-.619-1.093-.921-.217-.303-.325-.651-.325-1.045 0-.591.205-1.071.615-1.439.41-.369.943-.553 1.598-.553.627 0 1.201.175 1.724.526v1.219c-.541-.519-1.123-.779-1.746-.779-.351 0-.639.081-.865.244-.226.163-.338.371-.338.626 0 .226.082.437.247.634.165.197.431.403.8.618l.822.483c.917.544 1.375 1.239 1.375 2.084 0 .602-.201 1.09-.604 1.466-.403.376-.927.564-1.571.564-.741 0-1.416-.227-2.025-.682v-1.364c.58.734 1.251 1.101 2.014 1.101.337 0 .617-.094.841-.282.224-.188.336-.423.336-.706 0-.458-.329-.892-.988-1.3zm8.601-4.356h1.343l-3.255 3.556 4.055 3.948h-1.472l-3.83-3.706v3.706h-1.074v-7.503h1.074v3.432l3.158-3.432zm12.068-.107c1.16 0 2.126.367 2.898 1.101.772.734 1.157 1.654 1.157 2.761 0 1.106-.389 2.022-1.168 2.747-.779.725-1.761 1.088-2.946 1.088-1.132 0-2.074-.363-2.828-1.088-.754-.725-1.131-1.634-1.131-2.726 0-1.121.38-2.048 1.139-2.782s1.719-1.101 2.879-1.101zm.043 1.021c-.859 0-1.566.269-2.119.806-.553.537-.83 1.223-.83 2.057 0 .809.278 1.482.833 2.02.555.537 1.25.806 2.084.806.838 0 1.537-.274 2.097-.822.56-.548.841-1.23.841-2.046 0-.795-.28-1.464-.841-2.006-.56-.542-1.249-.814-2.065-.814zm6.517-.913h4.001v.956h-2.927v2.095h2.927v.956h-2.927v3.497h-1.074v-7.503z" sketch:type="MSShapeGroup"/></g></svg>