<svg width="282" height="55" viewBox="0 0 282 55" xmlns="http://www.w3.org/2000/svg" xmlns:sketch="http://www.bohemiancoding.com/sketch/ns"><title>Ragged + Write</title><desc>Created with Sketch.</desc><g sketch:type="MSLayerGroup" fill="none"><path d="M59.509 45.936c0-2.832-1.168-4.944-3.351-4.944-1.371 0-2.488 1.184-2.488 2.729 0 2.523 2.995 2.008 2.995 3.914 0 3.347-2.237 5.51-7.771 5.51-7.971 0-11.981-15.057-19.85-31.33 5.179-.978 11.373-5.253 11.373-10.711 0-7.467-5.889-9.218-14.419-9.218-14.013 0-25.03 5.716-25.03 14.265 0 4.274 2.437 8.394 7.26 8.394 2.792 0 4.62-1.699 4.62-3.708 0-1.957-1.168-2.884-2.691-2.884-2.386 0-1.879 3.193-3.96 3.193-1.98 0-3.605-1.648-3.605-4.995 0-7.827 10.763-11.793 15.688-11.793 1.269 0 1.98 1.03 1.218 4.12l-5.686 24.203c-.609 2.678-.812 3.811-5.889 4.377-.305.051-.609.515-.609.927 0 .412.152.515.305.515 2.995 0 4.823-.309 7.514-.309s4.417.309 7.768.309c.305 0 .558-.566.558-1.03 0-.206-.051-.412-.254-.412-3.554-.463-4.519-1.184-4.519-2.626 0-.463.152-1.081.305-1.751l2.488-10.505c1.371 0 2.234.463 2.894 1.905 7.819 16.788 12.336 30.763 24.521 30.763 7.006 0 10.622-3.405 10.622-8.246l-.008-.663zm-24.473-35.244c0 3.914-3.097 9.836-10.256 9.836h-2.945l3.249-13.853c.558-2.523 2.082-2.935 3.452-2.935 2.843 0 6.499 1.081 6.499 6.952zm30.668 5.304c.254-.463-.508-.875-1.828-.875-1.218 0-2.386.309-2.64.875l-.609 1.493c-.609-.412-1.32-.566-2.183-.566-5.432 0-16.45 11.175-16.45 18.642 0 2.369 1.066 3.759 2.792 3.759 3.097 0 7.869-4.12 10.306-8.703-1.168 2.214-2.132 4.532-2.132 6.283 0 1.493.812 2.42 2.539 2.42 3.097 0 8.174-6.54 8.174-6.952 0-.309-.305-.875-.812-.875-.406 0-3.452 4.532-4.62 4.532-.355 0-.508-.206-.508-.618 0-.618.355-1.596.762-2.523l7.209-16.891zm-17.465 19.414c-1.32 0-1.879-.669-1.879-2.575 0-4.635 7.108-14.316 11.931-14.316.812 0 1.117.566 1.117 1.545 0 3.605-8.326 15.346-11.169 15.346zm40.315-16.427c.102-.515.051-1.03-.305-.978l-4.975.154c-1.066-1.802-2.945-2.626-4.823-2.626-5.991 0-10.763 6.077-10.763 11.484 0 2.832 1.269 4.841 2.945 5.819-1.726.875-3.96 1.854-3.96 3.553 0 1.081 1.32 1.905 2.792 2.678-4.062 1.699-7.869 4.583-7.869 7.261 0 3.502 4.112 6.283 10.763 6.283 7.057 0 11.931-4.995 11.931-9.166 0-5.922-12.845-6.746-12.845-8.909 0-.463.508-1.03 1.879-1.03 6.042 0 10.966-6.128 10.966-11.381 0-.463-.051-.978-.102-1.442l3.3.103c.508 0 1.015-.978 1.066-1.802zm-8.631 1.081c0 6.489-2.792 11.793-5.94 11.793-1.472 0-2.031-1.493-2.031-2.832 0-7.107 3.605-11.793 5.94-11.793 1.523 0 2.031 1.339 2.031 2.832zm.457 25.903c0 3.141-4.214 4.995-7.971 4.995-4.417 0-7.311-1.442-7.311-4.841 0-2.729 3.808-5.459 6.143-6.18 4.671 1.39 9.139 2.987 9.139 6.025zm31.359-26.984c.102-.515.051-1.03-.305-.978l-4.975.154c-1.066-1.802-2.945-2.626-4.823-2.626-5.991 0-10.763 6.077-10.763 11.484 0 2.832 1.269 4.841 2.945 5.819-1.726.875-3.96 1.854-3.96 3.553 0 1.081 1.32 1.905 2.792 2.678-4.062 1.699-7.869 4.583-7.869 7.261 0 3.502 4.112 6.283 10.763 6.283 7.057 0 11.931-4.995 11.931-9.166 0-5.922-12.845-6.746-12.845-8.909 0-.463.508-1.03 1.879-1.03 6.042 0 10.966-6.128 10.966-11.381 0-.463-.051-.978-.102-1.442l3.3.103c.508 0 1.015-.978 1.066-1.802zm-8.631 1.081c0 6.489-2.792 11.793-5.94 11.793-1.472 0-2.031-1.493-2.031-2.832 0-7.107 3.605-11.793 5.94-11.793 1.523 0 2.031 1.339 2.031 2.832zm.457 25.903c0 3.141-4.214 4.995-7.971 4.995-4.417 0-7.311-1.442-7.311-4.841 0-2.729 3.808-5.459 6.143-6.18 4.671 1.39 9.139 2.987 9.139 6.025zm21.992-26.572c0-2.06-1.117-3.862-3.859-3.862-5.128 0-12.337 9.218-12.337 17.251 0 3.038 1.98 6.54 5.686 6.54 3.757 0 7.159-4.635 8.123-6.695.203-.412-.558-1.184-.812-.875-.914 1.442-2.691 3.811-5.737 3.811-1.98 0-2.691-1.287-2.691-4.223 0-.772.051-1.751.152-2.781 6.397 0 11.474-4.738 11.474-9.166zm-3.605.875c0 1.596-1.828 6.643-7.565 6.643.812-4.583 3.046-8.806 5.686-8.806 1.32 0 1.879.824 1.879 2.163zm33.054-18.848c0-.309-.152-.566-.508-.566-.355 0-.609.206-.863.36-1.472.927-5.026 2.317-7.311 2.729-.254 0-.406.257-.406.618 0 .36.203.618.457.669 1.422.154 2.183.515 2.183 1.236 0 .515-.152 1.236-.558 2.317l-2.843 8.188c-.711-.978-2.437-1.442-3.351-1.442-5.534 0-15.333 10.557-15.333 18.642 0 3.244 1.777 5.15 3.96 5.15 2.995 0 7.057-3.605 9.596-8.033-.711 1.648-1.422 3.244-1.422 5.15 0 1.751.812 2.884 2.742 2.884 3.351 0 7.717-6.489 7.717-6.952 0-.309-.406-.875-.914-.875-.355 0-2.894 4.326-4.214 4.326-.355 0-.508-.36-.508-.824 0-.618.609-2.369.914-3.193l10.408-29.044c.152-.566.254-.978.254-1.339zm-10.763 18.281c0 2.678-7.311 16.17-11.576 16.17-.965 0-1.625-.824-1.625-2.42 0-6.952 6.397-16.273 10.763-16.273 1.625 0 2.437 1.03 2.437 2.523z" fill="#fefefe" sketch:type="MSShapeGroup"/><path d="M216.743 6.01c0-2.583-1.113-4.08-2.631-4.08-1.973 0-3.289 1.704-3.289 3.357 0 1.601 1.467 4.08 1.467 6.715 0 13.636-4.807 22.623-14.27 22.623-1.872 0-3.441-1.291-4.402-3.409 5.313-5.32 9.614-12.189 9.614-17.509 0-3.254-1.417-5.785-4.149-5.785-4.605 0-11.588 9.349-11.588 21.383 0 1.188.202 2.324.506 3.461-2.176 1.136-4.504 1.859-6.882 1.859-3.239 0-4.757-3.151-4.757-6.405 0-15.908 12.195-20.402 12.195-24.379 0-.671-.658-1.343-1.366-1.343-.708 0-1.214.413-2.834.413-2.884 0-6.983-.981-8.957-.981-6.376 0-12.954 4.958-12.954 11.208 0 3.822 2.226 5.785 5.212 5.785 1.467 0 2.834-.981 2.834-2.428 0-4.287-5.161-1.188-5.161-6.043 0-2.996 2.277-4.907 7.287-4.907s7.287 1.291 12.246 1.291c-3.643 2.841-13.612 13.842-13.612 23.243 0 5.165 3.34 9.4 7.843 9.4 2.884 0 6.477-1.704 9.969-4.339 1.467 2.531 3.795 4.339 6.477 4.339 9.159 0 21.202-13.791 21.202-33.469zm-15.866 8.206c0 4.483-3.134 10.564-7.711 14.892-.249-1.134-.398-2.422-.398-3.813 0-8.812 3.582-14.068 5.92-14.068 1.443 0 2.189 1.391 2.189 2.989zm36.315 4.195c0-1.963-1.579-2.893-3.259-2.893-3.157 0-6.162 4.546-8.505 8.781l.968-2.789c.509-1.498.815-2.738.815-3.668 0-1.498-1.019-2.325-2.648-2.325-3.107 0-7.639 6.147-7.639 6.56 0 .258.306.878.866.878.509 0 2.801-4.132 4.125-4.132.306 0 .509.207.509.62 0 .517-.255 1.291-.662 2.531l-5.347 15.91c-.204.568.968.878 1.732.878 1.12 0 2.037-.258 2.292-.878 3.718-8.833 8.81-18.389 11.204-18.389 1.375 0 1.375 1.756 3.107 1.756 1.12 0 2.445-.878 2.445-2.841zm14.103-12.523c0-1.57-1.248-2.886-2.796-2.886-1.597 0-2.846 1.317-2.846 2.886 0 1.57 1.248 2.836 2.846 2.836 1.548 0 2.796-1.266 2.796-2.836zm-2.821 11.809c0-1.452-.86-2.178-2.377-2.178-3.136 0-8.547 6.535-8.547 7.001 0 .311.253.882.759.882.405 0 3.54-4.564 4.855-4.564.303 0 .455.207.455.519 0 .519-.253 1.4-.86 2.645l-5.513 11.41c-.657 1.452-1.113 2.749-1.113 3.786 0 1.348.708 2.282 2.428 2.282 3.085 0 8.547-6.586 8.547-7.001 0-.311-.303-.882-.809-.882s-3.49 4.564-4.855 4.564c-.303 0-.405-.207-.405-.622 0-.726.253-1.297.86-2.541l5.513-11.462c.759-1.608 1.062-2.489 1.062-3.838zm18.334-.211c0-.468-.102-.832-.563-.832h-4.912l1.893-5.615c.205-.572-1.126-.884-1.944-.884-.87 0-2.353.312-2.558.884l-1.893 5.615h-4.144c-.409 0-1.023.728-1.023 1.456 0 .468.102.832.512.832l3.939-.104-4.912 14.558c-.409 1.196-.614 2.236-.614 3.172 0 1.82.87 2.912 2.814 2.912 3.121 0 9.721-6.447 9.721-7.019 0-.312-.358-.884-.921-.884-.512 0-4.502 4.575-6.344 4.575-.409 0-.563-.312-.563-.832 0-.624.256-1.508.512-2.34l4.809-14.194 5.167.156c.409 0 1.023-.728 1.023-1.456zm15.161 1.923c0-2.074-1.119-3.89-3.864-3.89-5.135 0-12.354 9.283-12.354 17.374 0 3.06 1.983 6.586 5.694 6.586 3.762 0 7.169-4.668 8.135-6.742.203-.415-.559-1.193-.813-.882-.915 1.452-2.695 3.838-5.745 3.838-1.983 0-2.695-1.297-2.695-4.253 0-.778.051-1.763.153-2.801 6.406 0 11.49-4.771 11.49-9.231zm-3.526.81c0 1.621-1.874 6.745-7.757 6.745.833-4.653 3.123-8.94 5.83-8.94 1.353 0 1.926.837 1.926 2.196z" fill="#508FAB" sketch:type="MSShapeGroup"/></g></svg>