<?xml version="1.0" encoding="UTF-8" standalone="no"?>
<svg width="192px" height="34px" viewBox="0 0 192 34" version="1.1" xmlns="http://www.w3.org/2000/svg" xmlns:xlink="http://www.w3.org/1999/xlink" xmlns:sketch="http://www.bohemiancoding.com/sketch/ns">
    <!-- Generator: Sketch 3.0.3 (7891) - http://www.bohemiancoding.com/sketch -->
    <title>colophon</title>
    <desc>Created with Sketch.</desc>
    <defs></defs>
    <g id="Page-1" stroke="none" stroke-width="1" fill="none" fill-rule="evenodd" sketch:type="MSPage">
        <g id="colophon" sketch:type="MSLayerGroup" transform="translate(1.000000, 0.000000)" fill="rgba(255,255,255,.75)">
            <path d="M2.438,16.454 C1.286,16.454 -0.1,16.4 -0.1,16.4 L-0.1,16.922 L0.494,17.012 C1.232,17.12 1.538,17.354 1.538,18.182 L1.538,26.624 C1.538,27.668 1.142,28.244 0.368,28.388 L-0.1,28.478 L-0.1,29 C-0.1,29 1.106,28.946 2.366,28.946 C3.77,28.946 4.094,29 5.12,29 C9.854,29 12.302,26.048 12.302,22.412 C12.302,19.082 10.214,16.4 5.426,16.4 C4.292,16.4 3.626,16.454 2.438,16.454 Z M3.266,17.138 C3.464,17.084 4.094,17.012 4.634,17.012 C8.288,17.012 10.412,19.712 10.412,22.952 C10.412,27.578 7.712,28.388 4.652,28.388 C3.842,28.388 3.266,27.992 3.266,27.218 L3.266,17.138 Z M18.188,24.842 C16.1,24.842 13.598,25.436 13.598,27.452 C13.598,28.64 14.372,29.288 15.668,29.288 C17.108,29.288 17.63,28.388 18.368,28.226 C18.512,28.748 18.962,29.288 19.808,29.288 C20.852,29.288 21.392,28.424 21.392,28.424 L21.23,28.118 C21.23,28.118 20.942,28.298 20.492,28.298 C19.754,28.298 19.646,27.722 19.646,26.822 C19.646,25.616 19.736,24.5 19.736,23.366 C19.736,21.692 19.034,20.612 17.18,20.612 C15.524,20.612 13.994,21.422 13.994,22.394 C13.994,22.916 14.372,23.222 14.948,23.222 C15.272,23.222 15.578,23.132 15.812,22.952 C15.686,22.808 15.578,22.574 15.578,22.286 C15.578,21.836 15.92,21.368 16.784,21.368 C17.918,21.368 18.242,22.088 18.242,23.042 C18.242,23.636 18.188,24.842 18.188,24.842 Z M15.182,27.254 C15.182,26.012 16.55,25.418 18.17,25.418 C18.17,25.418 18.152,26.012 18.152,26.66 C18.152,27.326 18.242,27.83 18.242,27.83 C17.504,28.01 17.18,28.388 16.316,28.388 C15.704,28.388 15.182,28.046 15.182,27.254 Z M30.896,28.442 C30.32,28.37 30.176,28.226 30.176,27.38 L30.176,22.988 C30.176,21.656 29.42,20.612 27.818,20.612 C26.414,20.612 25.334,21.818 24.902,21.944 L24.902,20.63 C24.902,20.63 23.57,21.296 21.896,21.458 L22.004,21.854 C23.048,21.854 23.354,22.16 23.354,22.934 L23.354,27.236 C23.354,27.92 22.94,28.37 22.4,28.442 L21.896,28.514 L21.896,29 C21.896,29 23.318,28.946 24.128,28.946 C24.938,28.946 26.18,29 26.18,29 L26.18,28.514 L25.604,28.442 C25.028,28.388 24.902,28.226 24.902,27.38 L24.902,22.448 C25.586,22.322 26.27,21.71 27.224,21.71 C28.16,21.71 28.646,22.214 28.646,23.186 L28.646,27.236 C28.646,27.92 28.232,28.334 27.692,28.442 L27.314,28.514 L27.314,29 C27.314,29 28.592,28.946 29.474,28.946 C30.266,28.946 31.454,29 31.454,29 L31.454,28.514 L30.896,28.442 Z M36.044,28.442 C35.486,28.37 35.342,28.226 35.342,27.38 L35.342,20.63 C35.342,20.63 34.01,21.296 32.354,21.458 L32.444,21.854 C33.488,21.854 33.794,22.16 33.794,22.934 L33.794,27.236 C33.794,27.92 33.38,28.37 32.84,28.442 L32.354,28.514 L32.354,29 C32.354,29 33.758,28.946 34.586,28.946 C35.378,28.946 36.62,29 36.62,29 L36.62,28.514 L36.044,28.442 Z M33.524,17.21 C33.524,17.786 33.992,18.254 34.568,18.254 C35.162,18.254 35.63,17.786 35.63,17.21 C35.63,16.616 35.162,16.148 34.568,16.148 C33.992,16.148 33.524,16.616 33.524,17.21 Z M44.828,23.564 C44.828,21.692 43.892,20.612 42.002,20.612 C39.32,20.612 37.646,22.844 37.646,25.148 C37.646,27.452 38.924,29.288 41.48,29.288 C42.866,29.288 43.91,28.748 44.648,27.92 L44.504,27.578 C43.964,27.866 43.298,28.118 42.236,28.118 C40.364,28.118 39.23,26.858 39.23,24.608 C39.23,24.104 39.266,23.816 39.266,23.816 L44.54,23.816 L44.828,23.564 Z M39.338,23.312 C39.59,22.07 40.544,21.242 41.624,21.242 C42.614,21.242 43.262,21.71 43.262,22.826 C43.262,22.97 43.244,23.096 43.244,23.096 L39.338,23.312 Z M49.76,28.514 L49.184,28.442 C48.626,28.37 48.482,28.226 48.482,27.38 L48.482,15.5 C48.482,15.5 47.15,16.166 45.494,16.328 L45.584,16.724 C46.628,16.724 46.934,17.03 46.934,17.822 L46.934,27.236 C46.934,27.92 46.52,28.37 45.98,28.442 L45.494,28.514 L45.494,29 C45.494,29 46.898,28.946 47.726,28.946 C48.518,28.946 49.76,29 49.76,29 L49.76,28.514 Z M57.788,28.478 L57.788,29 C57.788,29 59.084,28.946 60.344,28.946 C61.748,28.946 62.972,29 62.972,29 L62.972,28.478 L62.396,28.388 C61.676,28.28 61.244,28.046 61.244,27.218 L61.244,17.138 L63.224,17.138 C64.304,17.138 65.114,17.57 65.114,18.812 L65.564,18.902 L65.762,16.112 L65.366,16.112 C65.366,16.112 65.186,16.4 64.646,16.4 L56.348,16.4 C55.772,16.4 55.628,16.112 55.628,16.112 L55.196,16.112 L54.998,18.812 L55.448,18.902 C55.826,17.66 56.672,17.138 58.328,17.138 L59.516,17.138 L59.516,26.624 C59.516,27.668 59.066,28.226 58.238,28.388 L57.788,28.478 Z M65.564,28.208 C65.564,28.802 66.05,29.288 66.644,29.288 C67.238,29.288 67.724,28.802 67.724,28.208 C67.724,27.614 67.238,27.128 66.644,27.128 C66.05,27.128 65.564,27.614 65.564,28.208 Z M82.16,16.4 C82.16,16.4 79.478,16.454 76.508,16.454 C75.662,16.454 73.97,16.4 73.97,16.4 L73.97,16.922 L74.564,17.012 C75.302,17.12 75.608,17.354 75.608,18.182 L75.608,26.624 C75.608,27.668 75.212,28.244 74.438,28.388 L73.97,28.478 L73.97,29 C73.97,29 75.14,28.946 76.436,28.946 C78.146,28.946 82.214,29 82.214,29 L82.772,25.67 L82.34,25.616 C81.836,26.948 80.99,28.388 78.722,28.388 C77.912,28.388 77.336,27.992 77.336,27.218 L77.336,22.898 L78.776,22.898 C79.766,22.898 80.18,23.312 80.288,23.978 L80.36,24.392 L80.81,24.392 C80.81,24.392 80.756,23.402 80.756,22.394 C80.756,21.44 80.81,20.108 80.81,20.108 L80.36,20.108 L80.234,20.828 C80.09,21.638 79.73,22.196 78.614,22.196 L77.336,22.196 L77.336,17.138 C77.534,17.084 77.966,17.012 78.452,17.012 C80.522,17.012 81.494,18.038 81.728,19.352 L82.16,19.352 L82.16,16.4 Z M90.08,20.702 C90.08,20.702 89.648,20.612 88.964,20.612 C85.544,20.612 83.96,22.88 83.96,25.274 C83.96,27.65 85.202,29.288 87.344,29.288 C88.73,29.288 89.342,28.388 90.08,28.172 L90.206,29.288 C90.206,29.288 91.574,28.586 93.086,28.46 L92.978,28.064 C91.934,28.064 91.628,27.776 91.628,26.984 L91.628,15.5 C91.628,15.5 90.296,16.166 88.64,16.328 L88.73,16.724 C89.774,16.724 90.08,17.03 90.08,17.822 L90.08,20.702 Z M88.208,28.28 C86.3,28.28 85.562,26.516 85.562,24.788 C85.562,22.538 86.948,21.278 88.514,21.278 C89.684,21.278 90.08,21.908 90.08,22.664 L90.08,27.668 C89.612,27.758 88.928,28.28 88.208,28.28 Z M101.096,23.564 C101.096,21.692 100.16,20.612 98.27,20.612 C95.588,20.612 93.914,22.844 93.914,25.148 C93.914,27.452 95.192,29.288 97.748,29.288 C99.134,29.288 100.178,28.748 100.916,27.92 L100.772,27.578 C100.232,27.866 99.566,28.118 98.504,28.118 C96.632,28.118 95.498,26.858 95.498,24.608 C95.498,24.104 95.534,23.816 95.534,23.816 L100.808,23.816 L101.096,23.564 Z M95.606,23.312 C95.858,22.07 96.812,21.242 97.892,21.242 C98.882,21.242 99.53,21.71 99.53,22.826 C99.53,22.97 99.512,23.096 99.512,23.096 L95.606,23.312 Z M111.104,28.442 C110.528,28.37 110.384,28.226 110.384,27.38 L110.384,22.988 C110.384,21.656 109.628,20.612 108.026,20.612 C106.622,20.612 105.542,21.818 105.11,21.944 L105.11,20.63 C105.11,20.63 103.778,21.296 102.104,21.458 L102.212,21.854 C103.256,21.854 103.562,22.16 103.562,22.934 L103.562,27.236 C103.562,27.92 103.148,28.37 102.608,28.442 L102.104,28.514 L102.104,29 C102.104,29 103.526,28.946 104.336,28.946 C105.146,28.946 106.388,29 106.388,29 L106.388,28.514 L105.812,28.442 C105.236,28.388 105.11,28.226 105.11,27.38 L105.11,22.448 C105.794,22.322 106.478,21.71 107.432,21.71 C108.368,21.71 108.854,22.214 108.854,23.186 L108.854,27.236 C108.854,27.92 108.44,28.334 107.9,28.442 L107.522,28.514 L107.522,29 C107.522,29 108.8,28.946 109.682,28.946 C110.474,28.946 111.662,29 111.662,29 L111.662,28.514 L111.104,28.442 Z M114.038,27.128 C113.408,27.128 112.994,27.614 112.994,28.244 C113.552,28.478 113.894,28.892 113.894,29.63 C113.894,30.458 113.318,31.25 112.4,31.592 L112.508,31.862 C113.876,31.574 115.208,30.422 115.208,28.64 C115.208,27.686 114.722,27.128 114.038,27.128 Z M123.956,16.454 C122.804,16.454 121.418,16.4 121.418,16.4 L121.418,16.922 L122.012,17.012 C122.75,17.12 123.056,17.354 123.056,18.182 L123.056,26.624 C123.056,27.668 122.66,28.244 121.886,28.388 L121.418,28.478 L121.418,29 C121.418,29 122.624,28.946 123.884,28.946 C125.288,28.946 125.612,29 126.638,29 C131.372,29 133.82,26.048 133.82,22.412 C133.82,19.082 131.732,16.4 126.944,16.4 C125.81,16.4 125.144,16.454 123.956,16.454 Z M124.784,17.138 C124.982,17.084 125.612,17.012 126.152,17.012 C129.806,17.012 131.93,19.712 131.93,22.952 C131.93,27.578 129.23,28.388 126.17,28.388 C125.36,28.388 124.784,27.992 124.784,27.218 L124.784,17.138 Z M142.28,23.564 C142.28,21.692 141.344,20.612 139.454,20.612 C136.772,20.612 135.098,22.844 135.098,25.148 C135.098,27.452 136.376,29.288 138.932,29.288 C140.318,29.288 141.362,28.748 142.1,27.92 L141.956,27.578 C141.416,27.866 140.75,28.118 139.688,28.118 C137.816,28.118 136.682,26.858 136.682,24.608 C136.682,24.104 136.718,23.816 136.718,23.816 L141.992,23.816 L142.28,23.564 Z M136.79,23.312 C137.042,22.07 137.996,21.242 139.076,21.242 C140.066,21.242 140.714,21.71 140.714,22.826 C140.714,22.97 140.696,23.096 140.696,23.096 L136.79,23.312 Z M148.652,20.972 C148.004,20.972 147.32,20.612 146.438,20.612 C144.638,20.612 143.594,21.71 143.594,22.97 C143.594,25.724 147.644,25.382 147.644,27.326 C147.644,28.082 146.96,28.55 146.042,28.55 C144.944,28.55 144.134,27.812 143.918,26.498 L143.45,26.498 C143.54,28.766 143.54,28.91 143.54,28.91 C144.35,28.91 144.782,29.288 145.934,29.288 C147.644,29.288 148.94,28.442 148.94,26.858 C148.94,24.14 144.8,24.356 144.8,22.484 C144.8,21.872 145.268,21.224 146.222,21.224 C147.5,21.224 148.022,22.25 148.022,23.15 L148.544,23.15 L148.652,20.972 Z M153.872,28.442 C153.314,28.37 153.17,28.226 153.17,27.38 L153.17,20.63 C153.17,20.63 151.838,21.296 150.182,21.458 L150.272,21.854 C151.316,21.854 151.622,22.16 151.622,22.934 L151.622,27.236 C151.622,27.92 151.208,28.37 150.668,28.442 L150.182,28.514 L150.182,29 C150.182,29 151.586,28.946 152.414,28.946 C153.206,28.946 154.448,29 154.448,29 L154.448,28.514 L153.872,28.442 Z M151.352,17.21 C151.352,17.786 151.82,18.254 152.396,18.254 C152.99,18.254 153.458,17.786 153.458,17.21 C153.458,16.616 152.99,16.148 152.396,16.148 C151.82,16.148 151.352,16.616 151.352,17.21 Z M159.632,32.888 C158.192,32.888 157.058,32.546 157.058,31.448 C157.058,31.034 157.256,30.692 157.616,30.44 C157.454,30.206 157.148,30.044 156.788,30.044 C156.194,30.044 155.492,30.44 155.492,31.412 C155.492,32.924 157.22,33.59 158.858,33.59 C161.666,33.59 163.88,32.42 163.88,30.566 C163.88,28.802 162.422,28.262 159.884,28.262 C158.372,28.262 157.688,28.136 157.688,27.596 C157.688,27.002 158.606,26.786 159.47,26.606 C161.702,26.444 162.656,24.824 162.656,23.456 C162.656,22.772 162.422,22.16 162.008,21.656 C162.404,21.782 162.71,22.16 163.322,22.16 C163.988,22.16 164.276,21.764 164.276,21.404 C164.276,21.206 164.186,20.99 164.024,20.864 C163.61,21.098 163.016,21.224 162.386,21.224 C162.062,21.224 161.72,21.17 161.396,21.116 C160.73,20.738 160.226,20.612 159.47,20.612 C157.202,20.612 155.87,22.178 155.87,23.744 C155.87,25.256 156.806,26.192 158.084,26.534 C157.364,26.66 156.302,27.092 156.302,28.172 C156.302,29.504 157.724,29.702 159.632,29.702 C161.486,29.702 162.62,29.954 162.62,31.124 C162.62,32.42 160.874,32.888 159.632,32.888 Z M159.11,21.224 C160.424,21.224 161.144,22.484 161.144,23.708 C161.144,25.238 160.424,26.012 159.38,26.012 C158.354,26.012 157.382,25.184 157.382,23.51 C157.382,22.178 157.886,21.224 159.11,21.224 Z M173.924,28.442 C173.348,28.37 173.204,28.226 173.204,27.38 L173.204,22.988 C173.204,21.656 172.448,20.612 170.846,20.612 C169.442,20.612 168.362,21.818 167.93,21.944 L167.93,20.63 C167.93,20.63 166.598,21.296 164.924,21.458 L165.032,21.854 C166.076,21.854 166.382,22.16 166.382,22.934 L166.382,27.236 C166.382,27.92 165.968,28.37 165.428,28.442 L164.924,28.514 L164.924,29 C164.924,29 166.346,28.946 167.156,28.946 C167.966,28.946 169.208,29 169.208,29 L169.208,28.514 L168.632,28.442 C168.056,28.388 167.93,28.226 167.93,27.38 L167.93,22.448 C168.614,22.322 169.298,21.71 170.252,21.71 C171.188,21.71 171.674,22.214 171.674,23.186 L171.674,27.236 C171.674,27.92 171.26,28.334 170.72,28.442 L170.342,28.514 L170.342,29 C170.342,29 171.62,28.946 172.502,28.946 C173.294,28.946 174.482,29 174.482,29 L174.482,28.514 L173.924,28.442 Z M182.492,23.564 C182.492,21.692 181.556,20.612 179.666,20.612 C176.984,20.612 175.31,22.844 175.31,25.148 C175.31,27.452 176.588,29.288 179.144,29.288 C180.53,29.288 181.574,28.748 182.312,27.92 L182.168,27.578 C181.628,27.866 180.962,28.118 179.9,28.118 C178.028,28.118 176.894,26.858 176.894,24.608 C176.894,24.104 176.93,23.816 176.93,23.816 L182.204,23.816 L182.492,23.564 Z M177.002,23.312 C177.254,22.07 178.208,21.242 179.288,21.242 C180.278,21.242 180.926,21.71 180.926,22.826 C180.926,22.97 180.908,23.096 180.908,23.096 L177.002,23.312 Z M187.208,28.442 C186.632,28.388 186.506,28.226 186.506,27.38 L186.506,22.574 C186.884,22.466 187.478,21.764 188.072,21.764 C188.54,21.764 188.72,22.016 188.72,22.304 C188.72,22.502 188.666,22.664 188.666,22.664 C188.846,22.718 189.008,22.754 189.188,22.754 C189.764,22.754 190.178,22.358 190.178,21.746 C190.178,21.044 189.692,20.612 188.9,20.612 C187.748,20.612 186.83,21.998 186.506,22.07 L186.506,20.63 C186.506,20.63 185.174,21.296 183.5,21.458 L183.608,21.854 C184.652,21.854 184.958,22.16 184.958,22.934 L184.958,27.236 C184.958,27.92 184.544,28.37 184.004,28.442 L183.5,28.514 L183.5,29 C183.5,29 184.436,28.946 185.732,28.946 C187.136,28.946 188.054,29 188.054,29 L188.054,28.514 L187.208,28.442 Z" id="Daniel-T.-Eden,-Desi" sketch:type="MSShapeGroup"></path>
            <path d="M-0.162109375,0.496582031 L3.83935547,0.496582031 L3.83935547,1.45263672 L0.912109375,1.45263672 L0.912109375,3.54736328 L3.83935547,3.54736328 L3.83935547,4.50341797 L0.912109375,4.50341797 L0.912109375,8 L-0.162109375,8 L-0.162109375,0.496582031 Z M6.19956768,8 L6.19956768,0.496582031 L8.07945049,0.496582031 C8.83856887,0.496582031 9.44102052,0.684568433 9.88682353,1.06054688 C10.3326265,1.43652532 10.5555247,1.94498377 10.5555247,2.5859375 C10.5555247,3.02278864 10.4463136,3.40055179 10.227888,3.71923828 C10.0094624,4.03792477 9.69615175,4.27604088 9.28794658,4.43359375 C9.52785664,4.59114662 9.76239205,4.80598822 9.99155986,5.078125 C10.2207277,5.35026178 10.5429901,5.82470365 10.9583567,6.50146484 C11.2197513,6.92757375 11.4292218,7.2480458 11.5867747,7.46289062 L11.9842356,8 L10.7059153,8 L10.3782786,7.50585938 C10.3675364,7.48795564 10.3460522,7.45751975 10.3138255,7.41455078 L10.1043528,7.11914062 L9.77134502,6.57128906 L9.41148174,5.98583984 C9.18947542,5.6778956 8.98627107,5.4326181 8.8018626,5.25 C8.61745412,5.0673819 8.45095188,4.93579142 8.30235088,4.85522461 C8.15374988,4.7746578 7.90399651,4.734375 7.5530833,4.734375 L7.27378643,4.734375 L7.27378643,8 L6.19956768,8 Z M7.59605205,1.40966797 L7.27378643,1.40966797 L7.27378643,3.77832031 L7.68198955,3.77832031 C8.22626311,3.77832031 8.59955039,3.7317713 8.8018626,3.63867188 C9.00417481,3.54557245 9.16172531,3.40503024 9.27451885,3.21704102 C9.38731238,3.02905179 9.4437083,2.81510537 9.4437083,2.57519531 C9.4437083,2.33886601 9.38104617,2.12491958 9.25572002,1.93334961 C9.13039387,1.74177964 8.95404472,1.60660847 8.72666728,1.52783203 C8.49928985,1.4490556 8.12242187,1.40966797 7.59605205,1.40966797 Z M17.0138814,0.389160156 C18.1740435,0.389160156 19.1399355,0.756181226 19.9115865,1.49023438 C20.6832375,2.22428752 21.0690572,3.14452572 21.0690572,4.25097656 C21.0690572,5.35742741 20.6796568,6.27318973 19.9008443,6.99829102 C19.1220318,7.7233923 18.1400267,8.0859375 16.9547994,8.0859375 C15.8232833,8.0859375 14.8806658,7.7233923 14.1269186,6.99829102 C13.3731713,6.27318973 12.9963033,5.36458879 12.9963033,4.27246094 C12.9963033,3.1516871 13.3758568,2.22428752 14.1349752,1.49023438 C14.8940936,0.756181226 15.8537194,0.389160156 17.0138814,0.389160156 Z M17.0568502,1.40966797 C16.1974709,1.40966797 15.4911791,1.67821997 14.9379537,2.21533203 C14.3847283,2.75244409 14.1081197,3.43814687 14.1081197,4.27246094 C14.1081197,5.08170978 14.3856235,5.75488013 14.9406393,6.29199219 C15.4956551,6.82910425 16.1903096,7.09765625 17.0246236,7.09765625 C17.8625184,7.09765625 18.5616488,6.82373321 19.1220357,6.27587891 C19.6824227,5.7280246 19.9626119,5.04590252 19.9626119,4.22949219 C19.9626119,3.43456634 19.6824227,2.76587185 19.1220357,2.22338867 C18.5616488,1.68090549 17.8732605,1.40966797 17.0568502,1.40966797 Z M29.536203,0.496582031 L30.5352265,0.496582031 L30.5352265,8 L29.4556366,8 L29.4556366,2.16162109 L27.1460663,5.06201172 L26.9473358,5.06201172 L24.6162812,2.16162109 L24.6162812,8 L23.5420624,8 L23.5420624,0.496582031 L24.551828,0.496582031 L27.0493866,3.57958984 L29.536203,0.496582031 Z M35.551061,0.485839844 L41.8191274,0.485839844 L41.8191274,1.44189453 L39.2034048,1.44189453 L39.2034048,8 L38.1238149,8 L38.1238149,1.44189453 L35.551061,1.44189453 L35.551061,0.485839844 Z M49.3033631,0.496582031 L50.3775818,0.496582031 L50.3775818,8 L49.3033631,8 L49.3033631,4.734375 L45.0870545,4.734375 L45.0870545,8 L44.0128357,8 L44.0128357,0.496582031 L45.0870545,0.496582031 L45.0870545,3.74072266 L49.3033631,3.74072266 L49.3033631,0.496582031 Z M53.2104503,0.496582031 L57.4643565,0.496582031 L57.4643565,1.45263672 L54.284669,1.45263672 L54.284669,3.74072266 L57.3569347,3.74072266 L57.3569347,4.70214844 L54.284669,4.70214844 L54.284669,7.03320312 L57.5664073,7.03320312 L57.5664073,7.98925781 L53.2104503,7.98925781 L53.2104503,0.496582031 Z M64.134488,7.98925781 L64.134488,0.496582031 L66.6642731,0.496582031 C67.6847861,0.496582031 68.4922324,0.649656672 69.0866364,0.955810547 C69.6810404,1.26196442 70.153692,1.71223661 70.5046052,2.30664062 C70.8555184,2.90104464 71.0309724,3.54915014 71.0309724,4.25097656 C71.0309724,4.75228115 70.9342936,5.23209406 70.7409333,5.69042969 C70.547573,6.14876531 70.2718596,6.55159332 69.9137849,6.89892578 C69.5485487,7.25700049 69.1242365,7.52734284 68.6408356,7.70996094 C68.3579566,7.8209641 68.0983564,7.89526348 67.862027,7.93286133 C67.6256977,7.97045917 67.1745304,7.98925781 66.5085114,7.98925781 L64.134488,7.98925781 Z M66.5514802,1.45263672 L65.2087067,1.45263672 L65.2087067,7.03320312 L66.5837067,7.03320312 C67.1208188,7.03320312 67.5379696,6.99650102 67.8351716,6.9230957 C68.1323736,6.84969039 68.3803366,6.75659236 68.5790681,6.64379883 C68.7777995,6.5310053 68.9595197,6.39225343 69.1242341,6.22753906 C69.6541846,5.690427 69.919156,5.01188561 69.919156,4.19189453 C69.919156,3.38622644 69.6470233,2.72916921 69.1027497,2.22070312 C68.9022279,2.03092353 68.6721683,1.87516337 68.4125642,1.75341797 C68.15296,1.63167257 67.9067873,1.55110697 67.6740388,1.51171875 C67.4412902,1.47233053 67.0671078,1.45263672 66.5514802,1.45263672 Z M73.5523174,0.496582031 L77.8062236,0.496582031 L77.8062236,1.45263672 L74.6265361,1.45263672 L74.6265361,3.74072266 L77.6988018,3.74072266 L77.6988018,4.70214844 L74.6265361,4.70214844 L74.6265361,7.03320312 L77.9082744,7.03320312 L77.9082744,7.98925781 L73.5523174,7.98925781 L73.5523174,0.496582031 Z M82.0892874,4.85253906 L81.2728812,4.35839844 C80.7608343,4.04687344 80.3964988,3.73982899 80.1798636,3.43725586 C79.9632284,3.13468273 79.8549124,2.7864603 79.8549124,2.39257812 C79.8549124,1.80175486 80.0599071,1.32194195 80.4699026,0.953125 C80.8798982,0.584308052 81.4125263,0.399902344 82.067803,0.399902344 C82.6944338,0.399902344 83.269135,0.575356318 83.7919241,0.926269531 L83.7919241,2.14550781 C83.2512313,1.62629949 82.6693686,1.36669922 82.0463187,1.36669922 C81.6954054,1.36669922 81.4071596,1.44815999 81.1815726,1.61108398 C80.9559855,1.77400798 80.8431937,1.98258336 80.8431937,2.23681641 C80.8431937,2.46240347 80.9255496,2.67366438 81.090264,2.87060547 C81.2549783,3.06754656 81.52174,3.27343643 81.8905569,3.48828125 L82.7123343,3.97167969 C83.6290055,4.51595324 84.0873343,5.21060775 84.0873343,6.05566406 C84.0873343,6.65722957 83.8859203,7.14599421 83.4830862,7.52197266 C83.0802522,7.8979511 82.5565758,8.0859375 81.9120413,8.0859375 C81.1708267,8.0859375 80.495866,7.85856347 79.887139,7.40380859 L79.887139,6.03955078 C80.46722,6.77360393 81.1386,7.140625 81.9012991,7.140625 C82.2378893,7.140625 82.5180786,7.0466318 82.7418753,6.85864258 C82.965672,6.67065336 83.0775687,6.43522277 83.0775687,6.15234375 C83.0775687,5.69400812 82.7481449,5.26074423 82.0892874,4.85253906 Z M90.6907105,0.496582031 L92.033484,0.496582031 L88.7786012,4.05224609 L92.833777,8 L91.3620973,8 L87.5325074,4.29394531 L87.5325074,8 L86.4582887,8 L86.4582887,0.496582031 L87.5325074,0.496582031 L87.5325074,3.92871094 L90.6907105,0.496582031 Z M102.758791,0.389160156 C103.918953,0.389160156 104.884845,0.756181226 105.656496,1.49023438 C106.428147,2.22428752 106.813967,3.14452572 106.813967,4.25097656 C106.813967,5.35742741 106.424567,6.27318973 105.645754,6.99829102 C104.866942,7.7233923 103.884936,8.0859375 102.699709,8.0859375 C101.568193,8.0859375 100.625576,7.7233923 99.8718283,6.99829102 C99.1180811,6.27318973 98.7412131,5.36458879 98.7412131,4.27246094 C98.7412131,3.1516871 99.1207666,2.22428752 99.879885,1.49023438 C100.639003,0.756181226 101.598629,0.389160156 102.758791,0.389160156 Z M102.80176,1.40966797 C101.942381,1.40966797 101.236089,1.67821997 100.682863,2.21533203 C100.129638,2.75244409 99.8530295,3.43814687 99.8530295,4.27246094 C99.8530295,5.08170978 100.130533,5.75488013 100.685549,6.29199219 C101.240565,6.82910425 101.935219,7.09765625 102.769533,7.09765625 C103.607428,7.09765625 104.306559,6.82373321 104.866946,6.27587891 C105.427332,5.7280246 105.707522,5.04590252 105.707522,4.22949219 C105.707522,3.43456634 105.427332,2.76587185 104.866946,2.22338867 C104.306559,1.68090549 103.61817,1.40966797 102.80176,1.40966797 Z M109.319199,0.496582031 L113.320664,0.496582031 L113.320664,1.45263672 L110.393417,1.45263672 L110.393417,3.54736328 L113.320664,3.54736328 L113.320664,4.50341797 L110.393417,4.50341797 L110.393417,8 L109.319199,8 L109.319199,0.496582031 Z" id="FROM-THE-DESK-OF" sketch:type="MSShapeGroup"></path>
        </g>
    </g>
</svg>
