<?xml version="1.0" encoding="UTF-8" standalone="no"?>
<svg width="282px" height="55px" viewBox="0 0 282 55" version="1.1" xmlns="http://www.w3.org/2000/svg" xmlns:xlink="http://www.w3.org/1999/xlink" xmlns:sketch="http://www.bohemiancoding.com/sketch/ns">
    <!-- Generator: Sketch 3.0.3 (7891) - http://www.bohemiancoding.com/sketch -->
    <title>Ragged + Write</title>
    <desc>Created with Sketch.</desc>
    <defs></defs>
    <g id="Page-1" stroke="none" stroke-width="1" fill="none" fill-rule="evenodd" sketch:type="MSPage">
        <g id="Ragged-+-Write" sketch:type="MSLayerGroup" transform="translate(1.000000, 1.000000)">
            <path d="M58.509242,44.9363636 C58.509242,42.1040457 57.341523,39.9926815 55.1583963,39.9926815 C53.7875958,39.9926815 52.6706472,41.1771053 52.6706472,42.722006 C52.6706472,45.2453437 55.6661002,44.7303768 55.6661002,46.6357543 C55.6661002,49.9830391 53.4293825,52.1459 47.8954101,52.1459 C39.924459,52.1459 35.914409,37.0890596 28.0449987,20.816106 C33.2235784,19.8376689 39.4175659,15.5634437 39.4175659,10.1047947 C39.4175659,2.63777483 33.5282008,0.886887417 24.9987754,0.886887417 C10.9861481,0.886887417 -0.0310263488,6.60301987 -0.0310263488,15.1514702 C-0.0310263488,19.4256954 2.40595232,23.5454305 7.22913927,23.5454305 C10.0215107,23.5454305 11.8492447,21.8460397 11.8492447,19.8376689 C11.8492447,17.8807947 10.6815257,16.9538543 9.15841405,16.9538543 C6.77220577,16.9538543 7.27990966,20.146649 5.19832371,20.146649 C3.21827854,20.146649 1.5936261,18.498755 1.5936261,15.1514702 C1.5936261,7.32397351 12.3569486,3.35872848 17.2816763,3.35872848 C18.550936,3.35872848 19.2617215,4.38866225 18.5001656,7.47846358 L12.8138821,31.6819073 C12.2046374,34.3597351 12.0015558,35.4926623 6.92451694,36.0591258 C6.6198946,36.1106225 6.31527227,36.5740927 6.31527227,36.9860662 C6.31527227,37.3980397 6.46758344,37.5010331 6.6198946,37.5010331 C9.61534755,37.5010331 11.4430816,37.192053 14.1339122,37.192053 C16.8247428,37.192053 18.550936,37.5010331 21.9017817,37.5010331 C22.206404,37.5010331 22.460256,36.9345695 22.460256,36.4710993 C22.460256,36.2651126 22.4094856,36.0591258 22.206404,36.0591258 C18.6524768,35.5956556 17.6878394,34.874702 17.6878394,33.4327947 C17.6878394,32.9693245 17.8401506,32.3513642 17.9924617,31.6819073 L20.4802108,21.1765828 C21.8510113,21.1765828 22.7141079,21.640053 23.374123,23.0819603 C31.1927629,39.8698808 35.7105168,53.8452907 47.8954101,53.8452907 C54.9017238,53.8452907 58.5177294,50.4398444 58.5177294,45.5991556 L58.509242,44.9363636 Z M34.0359046,9.69282119 C34.0359046,13.6065695 30.9389109,19.5286887 23.7802861,19.5286887 L20.8356035,19.5286887 L24.0849084,5.67607947 C24.6433827,3.15274172 26.1664944,2.74076821 27.5372949,2.74076821 C30.3804366,2.74076821 34.0359046,3.82219868 34.0359046,9.69282119 Z M64.7040402,14.9969801 C64.9578921,14.5335099 64.1963363,14.1215364 62.8763061,14.1215364 C61.6578168,14.1215364 60.4900979,14.4305166 60.2362459,14.9969801 L59.6270013,16.4903841 C59.0177566,16.0784106 58.3069711,15.9239205 57.4438745,15.9239205 C52.0114429,15.9239205 40.9942685,27.098702 40.9942685,34.5657219 C40.9942685,36.9345695 42.0604467,38.3249801 43.7866399,38.3249801 C46.8836336,38.3249801 51.6560502,34.205245 54.0930289,29.6220397 C52.9253099,31.8363974 51.9606725,34.1537483 51.9606725,35.9046358 C51.9606725,37.3980397 52.7729987,38.3249801 54.499192,38.3249801 C57.5961857,38.3249801 62.6732246,31.7849007 62.6732246,31.3729272 C62.6732246,31.063947 62.3686023,30.4974834 61.8608984,30.4974834 C61.4547353,30.4974834 58.4085119,35.0291921 57.240793,35.0291921 C56.8854003,35.0291921 56.7330891,34.8232053 56.7330891,34.4112318 C56.7330891,33.7932715 57.0884818,32.8148344 57.4946449,31.887894 L64.7040402,14.9969801 Z M47.2390263,34.4112318 C45.9189962,34.4112318 45.360522,33.7417748 45.360522,31.8363974 C45.360522,27.2016954 52.4683764,17.5203179 57.2915634,17.5203179 C58.1038896,17.5203179 58.4085119,18.0867815 58.4085119,19.0652185 C58.4085119,22.6699868 50.0821681,34.4112318 47.2390263,34.4112318 Z M87.5535358,17.9837881 C87.6550765,17.4688212 87.6043061,16.9538543 87.2489134,17.005351 L82.2734153,17.1598411 C81.2072371,15.357457 79.3287327,14.5335099 77.4502284,14.5335099 C71.4593225,14.5335099 66.6869059,20.6101192 66.6869059,26.0172715 C66.6869059,28.8495894 67.9561656,30.8579603 69.6315885,31.8363974 C67.9053952,32.7118411 65.6714981,33.6902781 65.6714981,35.3896689 C65.6714981,36.4710993 66.9915282,37.2950464 68.4638695,38.0674967 C64.4022384,39.7668874 60.5944592,42.650702 60.5944592,45.3285298 C60.5944592,48.8303046 64.7068607,51.6111258 71.3577817,51.6111258 C78.4148657,51.6111258 83.2888231,46.615947 83.2888231,42.4447152 C83.2888231,36.522596 70.4439147,35.698649 70.4439147,33.5357881 C70.4439147,33.0723179 70.9516186,32.5058543 72.3224191,32.5058543 C78.3640954,32.5058543 83.2888231,26.3777483 83.2888231,21.1250861 C83.2888231,20.6616159 83.2380527,20.146649 83.1872823,19.6831788 L86.4873576,19.7861722 C86.9950615,19.7861722 87.5027654,18.8077351 87.5535358,17.9837881 Z M78.9225696,19.0652185 C78.9225696,25.5538013 76.1301982,30.8579603 72.9824341,30.8579603 C71.5100928,30.8579603 70.9516186,29.3645563 70.9516186,28.0256424 C70.9516186,20.9190993 74.5563162,16.2329007 76.8917541,16.2329007 C78.4148657,16.2329007 78.9225696,17.5718146 78.9225696,19.0652185 Z M79.3795031,44.968053 C79.3795031,48.109351 75.1655609,49.9632318 71.4085521,49.9632318 C66.9915282,49.9632318 64.0976161,48.5213245 64.0976161,45.122543 C64.0976161,42.3932185 67.9053952,39.663894 70.2408331,38.9429404 C74.9117089,40.333351 79.3795031,41.9297483 79.3795031,44.968053 Z M110.73868,17.9837881 C110.840221,17.4688212 110.78945,16.9538543 110.434058,17.005351 L105.45856,17.1598411 C104.392381,15.357457 102.513877,14.5335099 100.635373,14.5335099 C94.6444668,14.5335099 89.8720502,20.6101192 89.8720502,26.0172715 C89.8720502,28.8495894 91.1413099,30.8579603 92.8167327,31.8363974 C91.0905395,32.7118411 88.8566424,33.6902781 88.8566424,35.3896689 C88.8566424,36.4710993 90.1766725,37.2950464 91.6490138,38.0674967 C87.5873827,39.7668874 83.7796035,42.650702 83.7796035,45.3285298 C83.7796035,48.8303046 87.892005,51.6111258 94.542926,51.6111258 C101.60001,51.6111258 106.473967,46.615947 106.473967,42.4447152 C106.473967,36.522596 93.629059,35.698649 93.629059,33.5357881 C93.629059,33.0723179 94.1367629,32.5058543 95.5075634,32.5058543 C101.54924,32.5058543 106.473967,26.3777483 106.473967,21.1250861 C106.473967,20.6616159 106.423197,20.146649 106.372427,19.6831788 L109.672502,19.7861722 C110.180206,19.7861722 110.68791,18.8077351 110.73868,17.9837881 Z M102.107714,19.0652185 C102.107714,25.5538013 99.3153425,30.8579603 96.1675784,30.8579603 C94.6952371,30.8579603 94.1367629,29.3645563 94.1367629,28.0256424 C94.1367629,20.9190993 97.7414605,16.2329007 100.076898,16.2329007 C101.60001,16.2329007 102.107714,17.5718146 102.107714,19.0652185 Z M102.564647,44.968053 C102.564647,48.109351 98.3507051,49.9632318 94.5936964,49.9632318 C90.1766725,49.9632318 87.2827604,48.5213245 87.2827604,45.122543 C87.2827604,42.3932185 91.0905395,39.663894 93.4259774,38.9429404 C98.0968532,40.333351 102.564647,41.9297483 102.564647,44.968053 Z M124.556688,18.3957616 C124.556688,16.335894 123.439739,14.5335099 120.698138,14.5335099 C115.570329,14.5335099 108.360934,23.7514172 108.360934,31.7849007 C108.360934,34.8232053 110.340979,38.3249801 114.047217,38.3249801 C117.804226,38.3249801 121.205842,33.6902781 122.170479,31.6304106 C122.373561,31.2184371 121.612005,30.4459868 121.358153,30.7549669 C120.444286,32.1968742 118.667322,34.5657219 115.621099,34.5657219 C113.641054,34.5657219 112.930269,33.2783046 112.930269,30.3429934 C112.930269,29.570543 112.981039,28.592106 113.08258,27.5621722 C119.479649,27.5621722 124.556688,22.8244768 124.556688,18.3957616 Z M120.95199,19.2712053 C120.95199,20.8676026 119.124256,25.9142781 113.387202,25.9142781 C114.199528,21.3310728 116.433425,17.1083444 119.073486,17.1083444 C120.393516,17.1083444 120.95199,17.9322914 120.95199,19.2712053 Z M154.006334,0.423417219 C154.006334,0.114437086 153.854023,-0.143046358 153.49863,-0.143046358 C153.143237,-0.143046358 152.889385,0.0629403974 152.635533,0.217430464 C151.163192,1.14437086 147.609265,2.53478146 145.324597,2.94675497 C145.070745,2.94675497 144.918434,3.20423841 144.918434,3.56471523 C144.918434,3.92519205 145.121516,4.1826755 145.375368,4.23417219 C146.796939,4.38866225 147.558494,4.74913907 147.558494,5.47009272 C147.558494,5.9850596 147.406183,6.70601325 147.00002,7.78744371 L144.156878,15.9754172 C143.446093,14.9969801 141.7199,14.5335099 140.806033,14.5335099 C135.27206,14.5335099 125.473375,25.0903311 125.473375,33.1753113 C125.473375,36.4196026 127.250339,38.3249801 129.433465,38.3249801 C132.428918,38.3249801 136.49055,34.7202119 139.029069,30.2914967 C138.318284,31.9393907 137.607498,33.5357881 137.607498,35.4411656 C137.607498,37.192053 138.419824,38.3249801 140.349099,38.3249801 C143.699945,38.3249801 148.066198,31.8363974 148.066198,31.3729272 C148.066198,31.063947 147.660035,30.4974834 147.152331,30.4974834 C146.796939,30.4974834 144.258419,34.8232053 142.938389,34.8232053 C142.582996,34.8232053 142.430685,34.4627285 142.430685,33.9992583 C142.430685,33.381298 143.03993,31.6304106 143.344552,30.8064636 L153.752482,1.76233113 C153.904793,1.19586755 154.006334,0.78389404 154.006334,0.423417219 Z M143.243011,18.7047417 C143.243011,21.3825695 135.932075,34.874702 131.667363,34.874702 C130.702725,34.874702 130.04271,34.050755 130.04271,32.4543576 C130.04271,25.5023046 136.439779,16.181404 140.806033,16.181404 C142.430685,16.181404 143.243011,17.2113377 143.243011,18.7047417 Z" id="Ragged" fill="#1a1f28" sketch:type="MSShapeGroup"></path>
            <path d="M215.743127,5.01016424 C215.743127,2.42765607 214.629879,0.929801325 213.111815,0.929801325 C211.138331,0.929801325 209.822675,2.63425672 209.822675,4.28706195 C209.822675,5.88821702 211.290137,8.36742487 211.290137,11.0015832 C211.290137,24.6372264 206.482933,33.6243548 197.02033,33.6243548 C195.14805,33.6243548 193.579384,32.3331007 192.617943,30.215444 C197.931169,24.8954772 202.232352,18.0260054 202.232352,12.7060386 C202.232352,9.4520783 200.815492,6.92122029 198.082975,6.92122029 C193.478179,6.92122029 186.495082,16.2698999 186.495082,28.304388 C186.495082,29.4923417 186.697491,30.6286453 187.001104,31.7649489 C184.825211,32.9012525 182.497512,33.6243548 180.119211,33.6243548 C176.880673,33.6243548 175.362608,30.4736949 175.362608,27.2197346 C175.362608,11.3114842 187.557727,6.81791997 187.557727,2.84085737 C187.557727,2.16940525 186.899899,1.49795312 186.191469,1.49795312 C185.483039,1.49795312 184.977018,1.91115443 183.357749,1.91115443 C180.473426,1.91115443 176.374652,0.929801325 174.401168,0.929801325 C168.025296,0.929801325 161.447016,5.88821702 161.447016,12.1378868 C161.447016,15.9599989 163.673511,17.9227051 166.659038,17.9227051 C168.126501,17.9227051 169.492759,16.941352 169.492759,15.4951474 C169.492759,11.2081839 164.331339,14.3071937 164.331339,9.4520783 C164.331339,6.45636882 166.608436,4.54531277 171.618049,4.54531277 C176.627662,4.54531277 178.904759,5.83656686 183.86377,5.83656686 C180.220415,8.67732585 170.251791,19.6788107 170.251791,29.0791404 C170.251791,34.2441568 173.591533,38.4794702 178.095125,38.4794702 C180.979447,38.4794702 184.5722,36.7750148 188.063749,34.1408565 C189.531211,36.6717145 191.85891,38.4794702 194.540825,38.4794702 C203.699814,38.4794702 215.743127,24.6888765 215.743127,5.01016424 Z M199.87738,13.2165353 C199.87738,17.6996164 196.743165,23.7801172 192.166216,28.1086093 C191.917469,26.9749566 191.768221,25.6867149 191.768221,24.2954139 C191.768221,15.4838407 195.350181,10.2278146 197.688405,10.2278146 C199.131139,10.2278146 199.87738,11.6191156 199.87738,13.2165353 Z M236.192311,17.4119205 C236.192311,15.4490066 234.613565,14.5192053 232.932964,14.5192053 C229.775471,14.5192053 226.77076,19.0649007 224.428104,23.3006623 L225.395723,20.5112583 C225.904996,19.013245 226.21056,17.7735099 226.21056,16.8437086 C226.21056,15.3456954 225.192014,14.5192053 223.56234,14.5192053 C220.455774,14.5192053 215.923244,20.6662252 215.923244,21.0794702 C215.923244,21.3377483 216.228808,21.9576159 216.789008,21.9576159 C217.298281,21.9576159 219.59001,17.8251656 220.91412,17.8251656 C221.219684,17.8251656 221.423393,18.0317881 221.423393,18.4450331 C221.423393,18.9615894 221.168757,19.7364238 220.761338,20.9761589 L215.413971,36.8860927 C215.210262,37.4543046 216.38159,37.7642384 217.1455,37.7642384 C218.2659,37.7642384 219.182592,37.5059603 219.437228,36.8860927 C223.154921,28.0529801 228.247652,18.4966887 230.641235,18.4966887 C232.016272,18.4966887 232.016272,20.2529801 233.747801,20.2529801 C234.868201,20.2529801 236.192311,19.3748344 236.192311,17.4119205 Z M250.295197,4.8888941 C250.295197,3.31918186 249.047154,2.00264901 247.499581,2.00264901 C245.902086,2.00264901 244.654043,3.31918186 244.654043,4.8888941 C244.654043,6.45860634 245.902086,7.72450331 247.499581,7.72450331 C249.047154,7.72450331 250.295197,6.45860634 250.295197,4.8888941 Z M247.47462,16.6974112 C247.47462,15.2452739 246.614864,14.5192053 245.097648,14.5192053 C241.962068,14.5192053 236.550663,21.053823 236.550663,21.5205814 C236.550663,21.8317537 236.803533,22.4022362 237.309271,22.4022362 C237.713862,22.4022362 240.849442,17.8383762 242.164363,17.8383762 C242.467806,17.8383762 242.619528,18.0458244 242.619528,18.3569966 C242.619528,18.8756171 242.366659,19.7572719 241.759772,21.001961 L236.24722,32.4116109 C235.58976,33.8637482 235.134595,35.1602993 235.134595,36.1975402 C235.134595,37.5459534 235.842629,38.4794702 237.562141,38.4794702 C240.647147,38.4794702 246.109125,31.8929905 246.109125,31.4780941 C246.109125,31.1669218 245.805682,30.5964393 245.299943,30.5964393 C244.794205,30.5964393 241.810346,35.1602993 240.444851,35.1602993 C240.141408,35.1602993 240.04026,34.9528511 240.04026,34.5379548 C240.04026,33.8118861 240.29313,33.2414036 240.900016,31.9967145 L246.412568,20.5352025 C247.171177,18.9274791 247.47462,18.0458244 247.47462,16.6974112 Z M265.808371,16.4860927 C265.808371,16.0181485 265.706048,15.6541919 265.245591,15.6541919 L260.334049,15.6541919 L262.227039,10.0388615 C262.431687,9.46692969 261.101478,9.15496689 260.282887,9.15496689 C259.413135,9.15496689 257.929441,9.46692969 257.724793,10.0388615 L255.831803,15.6541919 L251.68769,15.6541919 C251.278395,15.6541919 250.664452,16.3821051 250.664452,17.1100183 C250.664452,17.5779625 250.766776,17.9419191 251.176071,17.9419191 L255.115537,17.8379315 L250.203995,32.3961956 C249.7947,33.592053 249.590053,34.631929 249.590053,35.5678174 C249.590053,37.3876004 250.459805,38.4794702 252.403957,38.4794702 C255.524832,38.4794702 262.124715,32.032239 262.124715,31.4603072 C262.124715,31.1483444 261.766582,30.5764126 261.203801,30.5764126 C260.692183,30.5764126 256.701555,35.151867 254.859727,35.151867 C254.450432,35.151867 254.296946,34.8399042 254.296946,34.3199662 C254.296946,33.6960406 254.552756,32.812146 254.808565,31.9802452 L259.617783,17.7859377 L264.785134,17.9419191 C265.194429,17.9419191 265.808371,17.2140059 265.808371,16.4860927 Z M280.968974,18.4088587 C280.968974,16.3343769 279.850469,14.5192053 277.105048,14.5192053 C271.970095,14.5192053 264.750655,23.8025114 264.750655,31.8929905 C264.750655,34.9528511 266.733459,38.4794702 270.444861,38.4794702 C274.207104,38.4794702 277.613459,33.8118861 278.579441,31.7374043 C278.782805,31.322508 278.020188,30.5445773 277.765983,30.8557495 C276.850843,32.3078868 275.071403,34.6935409 272.020936,34.6935409 C270.038132,34.6935409 269.326356,33.3969898 269.326356,30.4408532 C269.326356,29.6629225 269.377197,28.6775436 269.47888,27.6403027 C275.884861,27.6403027 280.968974,22.8689946 280.968974,18.4088587 Z M277.443252,19.2184036 C277.443252,20.8391774 275.569177,25.9629139 269.686665,25.9629139 C270.519587,21.3097246 272.810123,17.0225166 275.51712,17.0225166 C276.870618,17.0225166 277.443252,17.859045 277.443252,19.2184036 Z" id="Write" fill="#508FAB" sketch:type="MSShapeGroup"></path>
        </g>
    </g>
</svg>
